<svg width="310" height="310" viewBox="0 0 310 310" fill="none" xmlns="http://www.w3.org/2000/svg">
<rect width="310" height="310" rx="72" fill="white"/>
<path d="M0 144C0 76.1178 0 42.1766 21.0883 21.0883C42.1766 0 76.1178 0 144 0H153V153H0V144Z" fill="#FDAD86"/>
<path d="M310 144C310 76.1178 310 42.1766 288.912 21.0883C267.823 0 233.882 0 166 0H157V153H310V144Z" fill="#FCE15A"/>
<path d="M310 166C310 233.882 310 267.823 288.912 288.912C267.823 310 233.882 310 166 310H157V157H310V166Z" fill="#82EEB4"/>
<path d="M0 166C0 233.882 0 267.823 21.0883 288.912C42.1766 310 76.1178 310 144 310H153V157H0V166Z" fill="#83D4FC"/>
</svg>
